<svg width="18" height="18" viewBox="0 0 18 18" fill="none" xmlns="http://www.w3.org/2000/svg">
<path fill-rule="evenodd" clip-rule="evenodd" d="M9 6.09091C7.64439 6.09091 6.54545 7.18984 6.54545 8.54545C6.54545 9.90106 7.64439 11 9 11C10.3556 11 11.4545 9.90106 11.4545 8.54545C11.4545 7.18984 10.3556 6.09091 9 6.09091ZM9 12.6364C6.74065 12.6364 4.90909 10.8048 4.90909 8.54545C4.90909 6.2861 6.74065 4.45454 9 4.45454C11.2593 4.45454 13.0909 6.2861 13.0909 8.54545C13.0909 10.8048 11.2593 12.6364 9 12.6364ZM9 2.40909C4.90909 2.40909 1.41545 4.95363 0 8.54545C1.41545 12.1373 4.90909 14.6818 9 14.6818C13.0909 14.6818 16.5845 12.1373 18 8.54545C16.5845 4.95363 13.0909 2.40909 9 2.40909Z" fill="#8F92A1"/>
<mask id="mask0" mask-type="alpha" maskUnits="userSpaceOnUse" x="0" y="2" width="18" height="13">
<path fill-rule="evenodd" clip-rule="evenodd" d="M9 6.09091C7.64439 6.09091 6.54545 7.18984 6.54545 8.54545C6.54545 9.90106 7.64439 11 9 11C10.3556 11 11.4545 9.90106 11.4545 8.54545C11.4545 7.18984 10.3556 6.09091 9 6.09091ZM9 12.6364C6.74065 12.6364 4.90909 10.8048 4.90909 8.54545C4.90909 6.2861 6.74065 4.45454 9 4.45454C11.2593 4.45454 13.0909 6.2861 13.0909 8.54545C13.0909 10.8048 11.2593 12.6364 9 12.6364ZM9 2.40909C4.90909 2.40909 1.41545 4.95363 0 8.54545C1.41545 12.1373 4.90909 14.6818 9 14.6818C13.0909 14.6818 16.5845 12.1373 18 8.54545C16.5845 4.95363 13.0909 2.40909 9 2.40909Z" fill="white"/>
</mask>
<g mask="url(#mask0)">
</g>
</svg>
