<svg width="20" height="18" viewBox="0 0 20 18" fill="none" xmlns="http://www.w3.org/2000/svg">
<path d="M10.9386 6.30559C10.9386 6.32463 10.9386 6.34367 10.9396 6.36154L8.11368 10.3844C7.65592 10.364 7.19657 10.4427 6.761 10.6186C6.569 10.6953 6.38908 10.7895 6.22027 10.8983L0.0150778 8.39495C0.0151264 8.39495 -0.128506 10.7099 0.469868 12.4351L4.85659 14.209C5.07685 15.1736 5.7521 16.0197 6.74832 16.4268C8.37825 17.0941 10.2576 16.3335 10.9356 14.7355C11.112 14.3178 11.1943 13.8797 11.1824 13.4425L15.2258 10.6108C15.2585 10.6118 15.2922 10.6127 15.3249 10.6127C17.7446 10.6127 19.7112 8.67958 19.7112 6.30559C19.7112 3.9314 17.7446 2 15.3249 2C12.9062 2 10.9386 3.9314 10.9386 6.30559ZM10.2606 14.4577C9.73578 15.6924 8.28794 16.2781 7.02944 15.7642C6.44886 15.5272 6.01052 15.093 5.75765 14.5752L7.18556 15.1552C8.11368 15.534 9.17849 15.1027 9.56429 14.1934C9.95128 13.2832 9.51225 12.2379 8.58463 11.8591L7.10854 11.2597C7.67812 11.0479 8.32561 11.0402 8.93058 11.2869C9.5405 11.5356 10.0137 12.0038 10.2645 12.6022C10.5153 13.2006 10.5143 13.8612 10.2606 14.4577ZM15.3249 9.17501C13.7141 9.17501 12.4027 7.88786 12.4027 6.30559C12.4027 4.72458 13.7141 3.43704 15.3249 3.43704C16.9367 3.43704 18.2481 4.72458 18.2481 6.30559C18.2481 7.88786 16.9367 9.17501 15.3249 9.17501ZM13.1352 6.30122C13.1352 5.11092 14.1185 4.14551 15.3299 4.14551C16.5422 4.14551 17.5255 5.11092 17.5255 6.30122C17.5255 7.49161 16.5422 8.45615 15.3299 8.45615C14.1185 8.45615 13.1352 7.49161 13.1352 6.30122Z" fill="#1E1F20"/>
</svg>
